<svg width="1280" height="832" viewBox="0 0 1280 832" fill="none" xmlns="http://www.w3.org/2000/svg">
<g clip-path="url(#clip0_1147_1642)">
<rect width="1280" height="832" fill="white"/>
<g clip-path="url(#clip1_1147_1642)">
<path d="M519.495 769.304C515.716 770.075 511.804 770.48 507.798 770.48C503.791 770.48 499.879 770.075 496.101 769.304H519.495ZM555.398 745.783C551.919 750.715 547.693 755.082 542.885 758.72H472.711C467.902 755.082 463.676 750.715 460.197 745.783H555.398ZM561.318 689.336C564.337 696.373 566.01 704.125 566.01 712.268C566.01 722.269 563.487 731.682 559.044 739.904H456.552C454.365 735.856 452.644 731.52 451.459 726.968H563.658V721.088H458.858L466.05 714.031H449.613C449.596 713.446 449.586 712.858 449.586 712.268C449.586 710.884 449.635 709.511 449.73 708.152H563.658V701.096H478.759L484.866 695.216H452.124C452.738 693.208 453.458 691.246 454.277 689.336H561.318ZM548.364 670.52C552.281 674.327 555.664 678.68 558.391 683.456H496.49L503.682 676.4H461.946C463.574 674.321 465.341 672.357 467.231 670.52H548.364ZM507.798 654.056C520.259 654.056 531.805 657.972 541.274 664.64H515.307L522.498 657.584H487.793C494.031 655.301 500.769 654.056 507.798 654.056Z" fill="black"/>
</g>
<path d="M1003.6 938H276.398M585.098 737L613.298 680.3H634.598L644.498 737H626.798L624.398 726.5H608.498L602.798 737H585.098ZM613.598 713.9L621.098 698L623.198 713.9H613.598ZM647.198 736.7L656.798 680.3H684.098C687.098 680.8 693.338 682.22 694.298 683.9C695.498 686 700.598 686.9 699.698 699.2C698.978 709.04 691.198 714.5 687.398 716L695.198 736.7H677.498L670.598 718.7H667.298L663.698 736.7H647.198ZM668.198 707.3L670.298 693.5C674.098 693.1 681.578 693.92 681.098 700.4C680.618 706.88 672.298 707.7 668.198 707.3ZM698.498 737L707.798 680.3H734.198C739.898 680.5 751.118 684.44 750.398 698.6C749.498 716.3 732.098 719.9 728.498 720.5C725.618 720.98 720.298 720.7 717.998 720.5L715.298 737H698.498ZM720.098 707.3L722.198 693.5C725.998 693.1 733.478 693.92 732.998 700.4C732.518 706.88 724.198 707.7 720.098 707.3Z" stroke="black" stroke-width="0.6"/>
<path d="M804.102 715.1H787.602C786.802 717.7 783.522 722.9 776.802 722.9C770.082 722.9 768.802 714.5 769.002 710.3C770.102 704.7 774.162 693.5 781.602 693.5C789.042 693.5 790.302 699.5 790.002 702.5H806.502C806.982 698.18 805.502 692.5 804.702 690.2C802.502 685.6 793.422 677.3 774.702 680.9C751.302 685.4 751.602 715.1 751.602 716.3C751.602 717.5 754.902 740.9 778.602 737.3C797.562 734.42 803.502 721.3 804.102 715.1Z" stroke="black" stroke-width="0.6"/>
<path d="M305.185 405.2H307.129V409.136L302.761 413.648V422H300.841V413.864L296.497 407.408V405.2H298.417V407.192L301.753 412.16H301.801L305.185 408.632V405.2ZM312.856 409.256H319.648L321.568 412.136V420.008L319.648 422H312.88L310.936 419.12V411.248L312.856 409.256ZM312.832 418.88L313.792 420.272H318.88L319.6 419.504V412.352L318.688 410.984H313.576L312.832 411.776V418.88ZM333.966 409.256H335.91V422H334.014V420.824L332.046 422H327.246L325.302 419.12V409.256H327.222V418.88L328.158 420.248H333.27L333.966 419.504V409.256ZM339.573 409.256H340.629L342.909 410.624L344.229 409.256H349.173L350.421 411.08L348.981 412.064L348.261 410.984H344.973L343.917 412.112V420.272H347.301V422H339.573V420.272H341.997V412.352L341.061 410.984H339.573V409.256ZM370.418 409.256H377.21L379.13 412.136V420.008L377.21 422H370.442L368.498 419.12V411.248L370.418 409.256ZM370.394 418.88L371.354 420.272H376.442L377.162 419.504V412.352L376.25 410.984H371.138L370.394 411.776V418.88ZM382.889 404.048H384.809V410.408L386.729 409.232H391.577L393.545 412.16V419.984L391.577 422H386.777L384.809 420.848V422H382.889V404.048ZM384.809 411.776V420.248H390.881L391.601 419.48V412.376L390.665 410.984H385.577L384.809 411.776ZM401.095 408.8H405.943V420.608L402.031 424.64H398.719V422.912H401.311L403.999 420.104V410.528H401.095V408.8ZM402.319 405.656V403.256H404.719V405.656H402.319ZM413.542 409.256H420.262L422.254 412.112L418.294 416.192H413.542V418.88L414.478 420.272H419.566L420.91 418.952L421.966 420.272L420.286 422H413.566L411.622 419.12V411.248L413.542 409.256ZM413.542 411.752V414.464H417.574L419.998 411.92L419.374 410.984H414.31L413.542 411.752ZM427.981 409.256H434.725L436.429 411.8L435.205 413.072L433.789 410.984H428.725L427.981 411.752V418.88L428.917 420.272H433.981L435.397 418.808L436.381 420.272L434.725 422H428.005L426.061 419.12V411.248L427.981 409.256ZM442.827 404.048H444.747V409.232H448.635V410.984H444.747V418.88L445.683 420.248H448.107L449.547 418.808L450.531 420.248L448.899 422H444.747L442.827 419.168V410.984H440.931V409.232H442.827V404.048ZM455.778 408.8H459.162L461.082 411.68V420.272H465.426V422H454.818V420.272H459.162V411.92L458.25 410.552H455.778V408.8ZM458.922 405.656H461.322V403.256H458.922V405.656ZM477.897 409.232H479.841V416.576L474.609 422H472.929L469.209 416.48V409.232H471.129V416.216L473.865 420.296L477.897 416.096V409.232ZM485.495 409.256H492.215L494.207 412.112L490.247 416.192H485.495V418.88L486.431 420.272H491.519L492.863 418.952L493.919 420.272L492.239 422H485.519L483.575 419.12V411.248L485.495 409.256ZM485.495 411.752V414.464H489.527L491.951 411.92L491.327 410.984H486.263L485.495 411.752ZM513.34 408.8H516.724L518.644 411.68V420.272H522.988V422H512.38V420.272H516.724V411.92L515.812 410.552H513.34V408.8ZM516.484 405.656H518.884V403.256H516.484V405.656ZM528.835 409.256H535.459L536.707 411.104L535.531 412.352L534.571 410.936H529.675L528.931 411.584V413.408L529.843 414.704H535.507L537.139 417.152V420.2L535.507 422H527.971L527.011 420.512L528.187 419.288L528.835 420.272H534.715L535.219 419.696V417.44L534.523 416.456H528.835L527.011 413.696V411.032L528.835 409.256ZM557.952 404.048H559.872V409.232H563.76V410.984H559.872V418.88L560.808 420.248H563.232L564.672 418.808L565.656 420.248L564.024 422H559.872L557.952 419.168V410.984H556.056V409.232H557.952V404.048ZM571.887 409.256H578.679L580.599 412.136V420.008L578.679 422H571.911L569.967 419.12V411.248L571.887 409.256ZM571.863 418.88L572.823 420.272H577.911L578.631 419.504V412.352L577.719 410.984H572.607L571.863 411.776V418.88ZM933.812 405.2H939.141L940.317 406.856L939.093 408.104L938.301 406.928H934.605L933.549 408.008V412.16H938.301V413.888H933.549V422H931.629V413.888H929.709V412.16H931.629V407.456L933.812 405.2ZM943.979 409.256H945.035L947.315 410.624L948.635 409.256H953.579L954.827 411.08L953.387 412.064L952.667 410.984H949.379L948.323 412.112V420.272H951.707V422H943.979V420.272H946.403V412.352L945.467 410.984H943.979V409.256ZM960.434 409.256H967.226L969.146 412.136V420.008L967.226 422H960.458L958.514 419.12V411.248L960.434 409.256ZM960.41 418.88L961.37 420.272H966.458L967.178 419.504V412.352L966.266 410.984H961.154L960.41 411.776V418.88ZM972.4 409.256H974.32V410.408L976.24 409.256H977.248L978.352 410.912L981.112 409.256H982.048L983.992 412.112V422H982.048V412.352L981.136 410.984H979.912L979.192 411.776V415.352H977.248V412.352L976.336 410.984H975.064L974.32 411.776V422H972.4V409.256ZM514.78 430.048H516.7V435.232H520.588V436.984H516.7V444.88L517.636 446.248H520.06L521.5 444.808L522.484 446.248L520.852 448H516.7L514.78 445.168V436.984H512.884V435.232H514.78V430.048ZM528.715 435.256H535.507L537.427 438.136V446.008L535.507 448H528.739L526.795 445.12V437.248L528.715 435.256ZM528.691 444.88L529.651 446.272H534.739L535.459 445.504V438.352L534.547 436.984H529.435L528.691 437.776V444.88ZM555.552 430.024H557.472V436.408L559.392 435.256H564.192L566.184 438.088V448H564.24V438.328L563.328 436.984H558.264L557.472 437.728V448H555.552V430.024ZM571.839 435.256H578.559L580.551 438.112L576.591 442.192H571.839V444.88L572.775 446.272H577.863L579.207 444.952L580.263 446.272L578.583 448H571.863L569.919 445.12V437.248L571.839 435.256ZM571.839 437.752V440.464H575.871L578.295 437.92L577.671 436.984H572.607L571.839 437.752ZM584.31 430.048H587.91L589.854 431.2V444.904L590.766 446.272H594.942L594.918 448H589.854L587.91 445.144V431.776H584.31V430.048ZM602.564 435.256H607.436L609.332 438.136V446.008L607.412 448H602.588L600.644 446.848V453.184H598.724V435.256H600.644V436.432L602.564 435.256ZM600.644 444.88L601.604 446.272H606.668L607.388 445.528V438.376L606.476 437.008H601.388L600.644 437.752V444.88ZM650.56 435.256H652.504V448H650.608V446.824L648.64 448H643.84L641.896 445.12V435.256H643.816V444.88L644.752 446.248H649.864L650.56 445.504V435.256ZM658.351 435.256H664.975L666.223 437.104L665.047 438.352L664.087 436.936H659.191L658.447 437.584V439.408L659.359 440.704H665.023L666.655 443.152V446.2L665.023 448H657.487L656.527 446.512L657.703 445.288L658.351 446.272H664.231L664.735 445.696V443.44L664.039 442.456H658.351L656.527 439.696V437.032L658.351 435.256ZM686.844 434.728H694.38L695.892 436.96V448H693.876V446.776L691.86 448H686.844L684.828 445V444.04L688.572 440.152H693.876V436.504H686.844V434.728ZM686.844 444.76L687.78 446.176H693.876V441.976H689.364L686.844 444.568V444.76ZM701.523 435.256H708.147L709.395 437.104L708.219 438.352L707.259 436.936H702.363L701.619 437.584V439.408L702.531 440.704H708.195L709.827 443.152V446.2L708.195 448H700.659L699.699 446.512L700.875 445.288L701.523 446.272H707.403L707.907 445.696V443.44L707.211 442.456H701.523L699.699 439.696V437.032L701.523 435.256ZM715.913 435.256H722.537L723.785 437.104L722.609 438.352L721.649 436.936H716.753L716.009 437.584V439.408L716.921 440.704H722.585L724.217 443.152V446.2L722.585 448H715.049L714.089 446.512L715.265 445.288L715.913 446.272H721.793L722.297 445.696V443.44L721.601 442.456H715.913L714.089 439.696V437.032L715.913 435.256ZM730.136 435.256H736.856L738.848 438.112L734.888 442.192H730.136V444.88L731.072 446.272H736.16L737.504 444.952L738.56 446.272L736.88 448H730.16L728.216 445.12V437.248L730.136 435.256ZM730.136 437.752V440.464H734.168L736.592 437.92L735.968 436.984H730.904L730.136 437.752ZM744.694 435.256H751.318L752.566 437.104L751.39 438.352L750.43 436.936H745.534L744.79 437.584V439.408L745.702 440.704H751.366L752.998 443.152V446.2L751.366 448H743.83L742.87 446.512L744.046 445.288L744.694 446.272H750.574L751.078 445.696V443.44L750.382 442.456H744.694L742.87 439.696V437.032L744.694 435.256ZM773.812 430.048H775.732V435.232H779.62V436.984H775.732V444.88L776.668 446.248H779.092L780.532 444.808L781.516 446.248L779.884 448H775.732L773.812 445.168V436.984H771.916V435.232H773.812V430.048ZM785.802 430.024H787.722V436.408L789.642 435.256H794.442L796.434 438.088V448H794.49V438.328L793.578 436.984H788.514L787.722 437.728V448H785.802V430.024ZM802.089 435.256H808.809L810.801 438.112L806.841 442.192H802.089V444.88L803.025 446.272H808.113L809.457 444.952L810.513 446.272L808.833 448H802.113L800.169 445.12V437.248L802.089 435.256ZM802.089 437.752V440.464H806.121L808.545 437.92L807.921 436.984H802.857L802.089 437.752ZM1018 435.256H1024.79L1026.71 438.136V446.008L1024.79 448H1018.02L1016.08 445.12V437.248L1018 435.256ZM1017.97 444.88L1018.93 446.272H1024.02L1024.74 445.504V438.352L1023.83 436.984H1018.72L1017.97 437.776V444.88ZM1034.55 431.2H1039.87L1041.05 432.856L1039.83 434.104L1039.03 432.928H1035.34L1034.28 434.008V438.16H1039.03V439.888H1034.28V448H1032.36V439.888H1030.44V438.16H1032.36V433.456L1034.55 431.2ZM579.538 456.048H581.458V461.232H585.346V462.984H581.458V470.88L582.394 472.248H584.818L586.258 470.808L587.242 472.248L585.61 474H581.458L579.538 471.168V462.984H577.642V461.232H579.538V456.048ZM591.529 456.024H593.449V462.408L595.369 461.256H600.169L602.161 464.088V474H600.217V464.328L599.305 462.984H594.241L593.449 463.728V474H591.529V456.024ZM607.815 461.256H614.535L616.527 464.112L612.567 468.192H607.815V470.88L608.751 472.272H613.839L615.183 470.952L616.239 472.272L614.559 474H607.839L605.895 471.12V463.248L607.815 461.256ZM607.815 463.752V466.464H611.847L614.271 463.92L613.647 462.984H608.583L607.815 463.752ZM636.477 460.728H644.013L645.525 462.96V474H643.509V472.776L641.493 474H636.477L634.461 471V470.04L638.205 466.152H643.509V462.504H636.477V460.728ZM636.477 470.76L637.413 472.176H643.509V467.976H638.997L636.477 470.568V470.76ZM648.971 461.256H650.027L652.307 462.624L653.627 461.256H658.571L659.819 463.08L658.379 464.064L657.659 462.984H654.371L653.315 464.112V472.272H656.699V474H648.971V472.272H651.395V464.352L650.459 462.984H648.971V461.256ZM665.378 461.256H672.098L674.09 464.112L670.13 468.192H665.378V470.88L666.314 472.272H671.402L672.746 470.952L673.802 472.272L672.122 474H665.402L663.458 471.12V463.248L665.378 461.256ZM665.378 463.752V466.464H669.41L671.834 463.92L671.21 462.984H666.146L665.378 463.752ZM679.649 460.728H687.185L688.697 462.96V474H686.681V472.776L684.665 474H679.649L677.633 471V470.04L681.377 466.152H686.681V462.504H679.649V460.728ZM679.649 470.76L680.585 472.176H686.681V467.976H682.169L679.649 470.568V470.76ZM695.887 474V470.64H699.247V474H695.887Z" fill="black"/>
<path d="M598.604 409.256H599.66L601.94 410.624L603.26 409.256H608.204L609.452 411.08L608.012 412.064L607.292 410.984H604.004L602.948 412.112V420.272H606.332V422H598.604V420.272H601.028V412.352L600.092 410.984H598.604V409.256ZM615.011 409.256H621.731L623.723 412.112L619.763 416.192H615.011V418.88L615.947 420.272H621.035L622.379 418.952L623.435 420.272L621.755 422H615.035L613.091 419.12V411.248L615.011 409.256ZM615.011 411.752V414.464H619.043L621.467 411.92L620.843 410.984H615.779L615.011 411.752ZM629.905 404.048H631.825V409.232H635.713V410.984H631.825V418.88L632.761 420.248H635.185L636.625 418.808L637.609 420.248L635.977 422H631.825L629.905 419.168V410.984H628.009V409.232H629.905V404.048ZM641.776 409.256H642.832L645.112 410.624L646.432 409.256H651.376L652.624 411.08L651.184 412.064L650.464 410.984H647.176L646.12 412.112V420.272H649.504V422H641.776V420.272H644.2V412.352L643.264 410.984H641.776V409.256ZM657.247 408.8H660.631L662.551 411.68V420.272H666.895V422H656.287V420.272H660.631V411.92L659.719 410.552H657.247V408.8ZM660.391 405.656H662.791V403.256H660.391V405.656ZM672.573 409.256H679.293L681.285 412.112L677.325 416.192H672.573V418.88L673.509 420.272H678.597L679.941 418.952L680.997 420.272L679.317 422H672.597L670.653 419.12V411.248L672.573 409.256ZM672.573 411.752V414.464H676.605L679.029 411.92L678.405 410.984H673.341L672.573 411.752ZM693.756 409.232H695.7V416.576L690.468 422H688.788L685.068 416.48V409.232H686.988V416.216L689.724 420.296L693.756 416.096V409.232ZM701.355 409.256H708.075L710.067 412.112L706.107 416.192H701.355V418.88L702.291 420.272H707.379L708.723 418.952L709.779 420.272L708.099 422H701.379L699.435 419.12V411.248L701.355 409.256ZM701.355 411.752V414.464H705.387L707.811 411.92L707.187 410.984H702.123L701.355 411.752ZM728.12 409.256H729.176L731.456 410.624L732.776 409.256H737.72L738.968 411.08L737.528 412.064L736.808 410.984H733.52L732.464 412.112V420.272H735.848V422H728.12V420.272H730.544V412.352L729.608 410.984H728.12V409.256ZM744.526 409.256H751.246L753.238 412.112L749.278 416.192H744.526V418.88L745.462 420.272H750.55L751.894 418.952L752.95 420.272L751.27 422H744.55L742.606 419.12V411.248L744.526 409.256ZM744.526 411.752V414.464H748.558L750.982 411.92L750.358 410.984H745.294L744.526 411.752ZM759.085 409.256H765.709L766.957 411.104L765.781 412.352L764.821 410.936H759.925L759.181 411.584V413.408L760.093 414.704H765.757L767.389 417.152V420.2L765.757 422H758.221L757.261 420.512L758.437 419.288L759.085 420.272H764.965L765.469 419.696V417.44L764.773 416.456H759.085L757.261 413.696V411.032L759.085 409.256ZM773.308 409.256H780.028L782.02 412.112L778.06 416.192H773.308V418.88L774.244 420.272H779.332L780.676 418.952L781.732 420.272L780.052 422H773.332L771.388 419.12V411.248L773.308 409.256ZM773.308 411.752V414.464H777.34L779.764 411.92L779.14 410.984H774.076L773.308 411.752ZM787.578 408.728H795.114L796.626 410.96V422H794.61V420.776L792.594 422H787.578L785.562 419V418.04L789.306 414.152H794.61V410.504H787.578V408.728ZM787.578 418.76L788.514 420.176H794.61V415.976H790.098L787.578 418.568V418.76ZM800.073 409.256H801.129L803.409 410.624L804.729 409.256H809.673L810.921 411.08L809.481 412.064L808.761 410.984H805.473L804.417 412.112V420.272H807.801V422H800.073V420.272H802.497V412.352L801.561 410.984H800.073V409.256ZM816.528 409.256H823.272L824.976 411.8L823.752 413.072L822.336 410.984H817.272L816.528 411.752V418.88L817.464 420.272H822.528L823.944 418.808L824.928 420.272L823.272 422H816.552L814.608 419.12V411.248L816.528 409.256ZM828.974 404.024H830.894V410.408L832.814 409.256H837.614L839.606 412.088V422H837.662V412.328L836.75 410.984H831.686L830.894 411.728V422H828.974V404.024ZM866.467 404.024H868.411V422H866.467V420.848L864.547 422H859.771L857.779 419.096V411.272L859.723 409.232H864.523L866.467 410.384V404.024ZM859.723 418.856L860.635 420.248H865.771L866.467 419.528V412.352L865.555 410.984H860.467L859.723 411.752V418.856ZM873.922 408.728H881.458L882.97 410.96V422H880.954V420.776L878.938 422H873.922L871.906 419V418.04L875.65 414.152H880.954V410.504H873.922V408.728ZM873.922 418.76L874.858 420.176H880.954V415.976H876.442L873.922 418.568V418.76ZM888.937 404.048H890.857V409.232H894.745V410.984H890.857V418.88L891.793 420.248H894.217L895.657 418.808L896.641 420.248L895.009 422H890.857L888.937 419.168V410.984H887.041V409.232H888.937V404.048ZM902.703 408.728H910.239L911.751 410.96V422H909.735V420.776L907.719 422H902.703L900.687 419V418.04L904.431 414.152H909.735V410.504H902.703V408.728ZM902.703 418.76L903.639 420.176H909.735V415.976H905.223L902.703 418.568V418.76ZM240.903 435.256H247.695L249.615 438.136V446.008L247.695 448H240.927L238.983 445.12V437.248L240.903 435.256ZM240.879 444.88L241.839 446.272H246.927L247.647 445.504V438.352L246.735 436.984H241.623L240.879 437.776V444.88ZM253.373 430.048H255.293V436.408L257.213 435.232H262.061L264.029 438.16V445.984L262.061 448H257.261L255.293 446.848V448H253.373V430.048ZM255.293 437.776V446.248H261.365L262.085 445.48V438.376L261.149 436.984H256.061L255.293 437.776ZM269.804 435.256H276.428L277.676 437.104L276.5 438.352L275.54 436.936H270.644L269.9 437.584V439.408L270.812 440.704H276.476L278.108 443.152V446.2L276.476 448H268.94L267.98 446.512L269.156 445.288L269.804 446.272H275.684L276.188 445.696V443.44L275.492 442.456H269.804L267.98 439.696V437.032L269.804 435.256ZM284.074 435.256H290.866L292.786 438.136V446.008L290.866 448H284.098L282.154 445.12V437.248L284.074 435.256ZM284.05 444.88L285.01 446.272H290.098L290.818 445.504V438.352L289.906 436.984H284.794L284.05 437.776V444.88ZM296.497 430.048H300.097L302.041 431.2V444.904L302.953 446.272H307.129L307.105 448H302.041L300.097 445.144V431.776H296.497V430.048ZM312.808 435.256H319.528L321.52 438.112L317.56 442.192H312.808V444.88L313.744 446.272H318.832L320.176 444.952L321.232 446.272L319.552 448H312.832L310.888 445.12V437.248L312.808 435.256ZM312.808 437.752V440.464H316.84L319.264 437.92L318.64 436.984H313.576L312.808 437.752ZM327.702 430.048H329.622V435.232H333.51V436.984H329.622V444.88L330.558 446.248H332.982L334.422 444.808L335.406 446.248L333.774 448H329.622L327.702 445.168V436.984H325.806V435.232H327.702V430.048ZM341.589 435.256H348.309L350.301 438.112L346.341 442.192H341.589V444.88L342.525 446.272H347.613L348.957 444.952L350.013 446.272L348.333 448H341.613L339.669 445.12V437.248L341.589 435.256ZM341.589 437.752V440.464H345.621L348.045 437.92L347.421 436.984H342.357L341.589 437.752ZM362.796 430.024H364.74V448H362.796V446.848L360.876 448H356.1L354.108 445.096V437.272L356.052 435.232H360.852L362.796 436.384V430.024ZM356.052 444.856L356.964 446.248H362.1L362.796 445.528V438.352L361.884 436.984H356.796L356.052 437.752V444.856ZM384.929 435.256H391.553L392.801 437.104L391.625 438.352L390.665 436.936H385.769L385.025 437.584V439.408L385.937 440.704H391.601L393.233 443.152V446.2L391.601 448H384.065L383.105 446.512L384.281 445.288L384.929 446.272H390.809L391.313 445.696V443.44L390.617 442.456H384.929L383.105 439.696V437.032L384.929 435.256ZM399.655 430.048H401.575V435.232H405.463V436.984H401.575V444.88L402.511 446.248H404.935L406.375 444.808L407.359 446.248L405.727 448H401.575L399.655 445.168V436.984H397.759V435.232H399.655V430.048ZM413.422 434.728H420.958L422.47 436.96V448H420.454V446.776L418.438 448H413.422L411.406 445V444.04L415.15 440.152H420.454V436.504H413.422V434.728ZM413.422 444.76L414.358 446.176H420.454V441.976H415.942L413.422 444.568V444.76ZM428.437 430.048H430.357V435.232H434.245V436.984H430.357V444.88L431.293 446.248H433.717L435.157 444.808L436.141 446.248L434.509 448H430.357L428.437 445.168V436.984H426.541V435.232H428.437V430.048ZM441.387 434.8H444.771L446.691 437.68V446.272H451.035V448H440.427V446.272H444.771V437.92L443.859 436.552H441.387V434.8ZM444.531 431.656H446.931V429.256H444.531V431.656ZM456.762 435.256H463.554L465.474 438.136V446.008L463.554 448H456.786L454.842 445.12V437.248L456.762 435.256ZM456.738 444.88L457.698 446.272H462.786L463.506 445.504V438.352L462.594 436.984H457.482L456.738 437.776V444.88ZM469.209 435.256H471.129V436.408L473.073 435.256H477.897L479.841 438.088V448H477.897V438.328L476.985 436.984H471.873L471.129 437.752V448H469.209V435.256ZM485.663 435.256H492.287L493.535 437.104L492.359 438.352L491.399 436.936H486.503L485.759 437.584V439.408L486.671 440.704H492.335L493.967 443.152V446.2L492.335 448H484.799L483.839 446.512L485.015 445.288L485.663 446.272H491.543L492.047 445.696V443.44L491.351 442.456H485.663L483.839 439.696V437.032L485.663 435.256ZM828.974 430.024H830.894V436.408L832.814 435.256H837.614L839.606 438.088V448H837.662V438.328L836.75 436.984H831.686L830.894 437.728V448H828.974V430.024ZM845.141 434.728H852.677L854.189 436.96V448H852.173V446.776L850.157 448H845.141L843.125 445V444.04L846.869 440.152H852.173V436.504H845.141V434.728ZM845.141 444.76L846.077 446.176H852.173V441.976H847.661L845.141 444.568V444.76ZM857.779 430.048H859.699V436.408L861.619 435.232H866.467L868.435 438.16V445.984L866.467 448H861.667L859.699 446.848V448H857.779V430.048ZM859.699 437.776V446.248H865.771L866.491 445.48V438.376L865.555 436.984H860.467L859.699 437.776ZM873.106 434.8H876.49L878.41 437.68V446.272H882.754V448H872.146V446.272H876.49V437.92L875.578 436.552H873.106V434.8ZM876.25 431.656H878.65V429.256H876.25V431.656ZM888.937 430.048H890.857V435.232H894.745V436.984H890.857V444.88L891.793 446.248H894.217L895.657 444.808L896.641 446.248L895.009 448H890.857L888.937 445.168V436.984H887.041V435.232H888.937V430.048ZM902.703 434.728H910.239L911.751 436.96V448H909.735V446.776L907.719 448H902.703L900.687 445V444.04L904.431 440.152H909.735V436.504H902.703V434.728ZM902.703 444.76L903.639 446.176H909.735V441.976H905.223L902.703 444.568V444.76ZM915.342 430.048H917.262V436.408L919.182 435.232H924.03L925.998 438.16V445.984L924.03 448H919.23L917.262 446.848V448H915.342V430.048ZM917.262 437.776V446.248H923.334L924.054 445.48V438.376L923.118 436.984H918.03L917.262 437.776ZM930.669 434.8H934.053L935.973 437.68V446.272H940.317V448H929.709V446.272H934.053V437.92L933.141 436.552H930.669V434.8ZM933.812 431.656H936.213V429.256H933.812V431.656ZM944.075 430.048H947.675L949.619 431.2V444.904L950.531 446.272H954.707L954.683 448H949.619L947.675 445.144V431.776H944.075V430.048ZM959.45 434.8H962.834L964.754 437.68V446.272H969.098V448H958.49V446.272H962.834V437.92L961.922 436.552H959.45V434.8ZM962.594 431.656H964.994V429.256H962.594V431.656ZM975.28 430.048H977.2V435.232H981.088V436.984H977.2V444.88L978.136 446.248H980.56L982 444.808L982.984 446.248L981.352 448H977.2L975.28 445.168V436.984H973.384V435.232H975.28V430.048ZM995.935 435.232H997.879V449.152L993.991 453.208H987.271V451.456H993.199L995.935 448.648V448H989.671L987.271 444.448V435.232H989.191V444.208L990.607 446.248H995.935V435.232Z" fill="#FF0000"/>
<path d="M535.69 351H549.13L553.45 357.28V361.28L549.49 365.32L553.45 371.04V379H550.21V371.4L546.17 365.52H542.05L538.89 363.56V379H535.69V351ZM538.89 353.88V362.6H548.17L550.21 360.56V357.72L547.57 353.88H538.89ZM562.915 351H577.395V353.88H564.115L562.875 355.2V362.6H572.155V365.52H562.875V373.8L564.435 376.12H577.395V379H562.875L559.675 374.2V354.32L562.915 351ZM583.699 351H586.899V352.12L591.099 358.32L598.179 351H601.419V379H598.179V355.2L594.219 359.36V363H590.739V362.92L586.899 357.24V379H583.699V351ZM607.683 351H625.363V353.92H618.123V376.08H625.363V379H607.683V376.08H614.923V353.92H607.683V351ZM646.148 351H649.388V379H646.148V368.32L636.428 353.88H634.868V379H631.668V351H637.948L646.148 363.12V351ZM656.052 351H668.372L673.772 359.04V375.68L670.572 379H656.052V351ZM659.252 353.88V376.12H669.252L670.532 374.8V359.44L666.812 353.88H659.252ZM682.837 351H697.317V353.88H684.037L682.797 355.2V362.6H692.077V365.52H682.797V373.8L684.357 376.12H697.317V379H682.797L679.597 374.2V354.32L682.837 351ZM703.581 351H717.021L721.341 357.28V361.28L717.381 365.32L721.341 371.04V379H718.101V371.4L714.061 365.52H709.941L706.781 363.56V379H703.581V351ZM706.781 353.88V362.6H716.061L718.101 360.56V357.72L715.461 353.88H706.781ZM733.645 358.68H739.245V364.28H733.645V358.68ZM733.645 372.28H739.245V377.88H733.645V372.28Z" fill="black"/>
</g>
<defs>
<clipPath id="clip0_1147_1642">
<rect width="1280" height="832" fill="white"/>
</clipPath>
<clipPath id="clip1_1147_1642">
<rect width="117.6" height="117.6" fill="white" transform="translate(439 647)"/>
</clipPath>
</defs>
</svg>
